<svg width="14" height="14" viewBox="0 0 14 14" fill="none" xmlns="http://www.w3.org/2000/svg">
<rect x="0.318182" y="0.318182" width="13.3636" height="13.3636" rx="0.954545" stroke="black" stroke-width="0.636364"/>
<path d="M6.04527 3.22593V5.65005C6.04527 5.7754 6.02058 5.89953 5.97261 6.01534C5.92464 6.13115 5.85433 6.23638 5.76569 6.32502L4.03012 8.06059M6.04527 3.22593C5.93879 3.23568 5.83273 3.24714 5.72709 3.26071M6.04527 3.22593C6.68026 3.16688 7.31937 3.16688 7.95436 3.22593M7.95436 3.22593V5.65005C7.95436 5.90332 8.05491 6.14641 8.23394 6.32502L10.3089 8.39999M7.95436 3.22593C8.06085 3.23568 8.16691 3.24714 8.27254 3.26071M10.3089 8.39999L9.64285 8.56671C8.75491 8.78613 7.81783 8.6819 6.99982 8.27271C6.1818 7.86353 5.24473 7.7593 4.35679 7.97871L4.03012 8.06059M10.3089 8.39999L10.9037 8.99477C11.4264 9.51744 11.1795 10.4024 10.451 10.5267C9.31091 10.7211 8.15638 10.8186 6.99982 10.8182C5.82339 10.8182 4.6703 10.7185 3.5486 10.5267C2.81976 10.4024 2.57285 9.51744 3.09594 8.9952L4.03012 8.06059" stroke="url(#paint0_linear_1003_210)" stroke-width="0.636364" stroke-linecap="round" stroke-linejoin="round"/>
<defs>
<linearGradient id="paint0_linear_1003_210" x1="12.7271" y1="1.11362" x2="2.86345" y2="10.8182" gradientUnits="userSpaceOnUse">
<stop stop-color="#EC4899"/>
<stop offset="1" stop-color="#6366F1"/>
</linearGradient>
</defs>
</svg>
