<svg width="14" height="14" viewBox="0 0 14 14" fill="none" xmlns="http://www.w3.org/2000/svg">
<g clip-path="url(#clip0_1028_441)">
<path d="M14 7C14 10.866 10.866 14 7 14C3.134 14 0 10.866 0 7C0 3.134 3.134 0 7 0C10.866 0 14 3.134 14 7Z" fill="black"/>
<path fill-rule="evenodd" clip-rule="evenodd" d="M7 14C10.866 14 14 10.866 14 7C14 3.13401 10.866 0 7 0C3.13401 0 0 3.13401 0 7C0 10.866 3.13401 14 7 14ZM7 0.65625C10.5036 0.65625 13.3438 3.49645 13.3438 7C13.3438 7 13.5352 11.1836 9.23284 12.9397L9.17842 8.75815C9.17842 8.75815 10.3181 6.79498 10.3604 6.11986C11.4371 7.87166 11.1839 9.66574 11.1839 9.66574C11.1712 9.67302 11.1596 9.67958 11.149 9.68554C11.083 9.72295 11.0555 9.73848 11.044 9.76188C11.0359 9.77851 11.0359 9.79912 11.0359 9.83445V10.7843C11.0359 10.8196 11.0359 10.8403 11.044 10.857C11.0556 10.8807 11.0834 10.8964 11.1504 10.9344C11.1606 10.9402 11.1717 10.9465 11.1839 10.9534V11.0798C11.1839 11.101 11.1839 11.1115 11.1892 11.1168C11.1944 11.1221 11.205 11.1221 11.2261 11.1221H11.4371C11.4582 11.1221 11.4688 11.1221 11.4741 11.1168C11.4793 11.1115 11.4793 11.101 11.4793 11.0798V10.9534C11.4914 10.9465 11.5025 10.9402 11.5127 10.9344L11.5128 10.9344C11.5796 10.8964 11.6073 10.8807 11.6188 10.8571C11.6269 10.8403 11.6269 10.8196 11.6269 10.7843V9.83445C11.6269 9.79912 11.6269 9.77851 11.6188 9.76183C11.6074 9.73848 11.58 9.72295 11.5141 9.68554L11.5026 9.67898C11.4953 9.67488 11.4875 9.67045 11.4793 9.66574C11.4793 9.66574 11.6269 7.175 10.3815 5.78211C10.3223 5.71539 10.2472 5.71173 10.1917 5.76095C10.0089 5.92315 9.74444 6.22929 9.52235 6.48648C9.32214 6.7183 9.15627 6.91037 9.11542 6.92136C9.0113 6.94941 8.59359 6.75057 8.22855 6.38263C8.071 6.22382 7.99816 6.38006 7.99646 6.4365C7.98323 6.88193 7.92017 7.24024 7.85105 7.63334L7.85099 7.63339V7.6335V7.63361C7.82917 7.75753 7.80675 7.88495 7.78509 8.01965C7.78509 8.01965 7.53227 5.59185 5.63254 5.12771L5.94918 4.53672C6.64541 5.02202 7.95419 4.51558 7.49 3.86119C7.4287 3.775 5.65365 2.9395 5.18908 2.82677C2.23416 2.10938 2.25572 8.15145 2.25572 8.15145C2.12931 8.19372 2.12931 8.38348 2.12931 8.38348C1.36883 8.44692 1.36883 9.05904 1.36883 9.10131V9.52361H1.81227V9.96707C1.81227 10.0089 1.81227 10.1357 2.00208 10.1357C2.1919 10.1357 2.1919 10.0089 2.1919 9.96663V9.52317H2.57193V9.96663C2.57193 10.0089 2.57193 10.1357 2.76174 10.1357C2.95197 10.1357 2.95197 10.0089 2.95197 9.96663V9.52317H3.39541V9.10131C3.39541 9.05904 3.39541 8.44692 2.63534 8.38348C2.63534 8.38348 2.63534 8.19372 2.50852 8.15145C2.50852 7.27809 2.70607 2.50379 5.04154 3.06465C5.04154 3.06465 3.7539 4.826 3.7539 5.1965C3.7539 5.49199 5.88574 8.38348 5.88574 8.38348L5.15182 13.0703C0.519531 11.5664 0.65625 7 0.65625 7C0.65625 3.49645 3.49645 0.65625 7 0.65625ZM7.02543 8.65249C7.61644 8.99024 8.35538 8.8427 8.35538 8.8427C8.10212 9.13817 7.8278 9.20117 7.8278 9.20117C7.8278 9.20117 7.64504 10.7516 7.61644 10.742C7.55344 10.7209 7.55344 9.20117 7.55344 9.20117C7.55344 9.20117 7.30023 9.01135 7.02543 8.65249Z" fill="#FECE03"/>
<path d="M5.61665 2.87816C5.61665 2.87816 5.54786 2.84869 5.56897 2.78528C5.56897 2.78528 5.66183 2.36711 6.22336 1.64558C6.37091 1.45453 6.58227 1.56063 6.58227 1.56063C6.58227 1.56063 7.23667 1.81343 7.42649 2.06458C7.45175 2.09773 7.43064 2.16321 7.42649 2.17233C7.10985 2.86899 6.68793 3.29131 6.68793 3.29131C6.67552 3.30249 6.66977 3.29874 6.65895 3.29504C5.92744 3.04393 5.61665 2.87816 5.61665 2.87816Z" fill="#FECE03"/>
<path d="M6.94144 3.39733C6.9328 3.3805 6.94309 3.36335 6.94309 3.36335C6.94309 3.36335 7.35751 2.60871 7.70111 2.13082C7.70822 2.12093 7.74338 2.08855 7.78565 2.10968C7.78565 2.10968 8.74586 2.52582 8.8619 2.86934C8.8654 2.87973 8.86524 2.88426 8.85775 2.89711C8.52459 3.46074 7.72222 4.6423 7.72222 4.6423C7.7098 4.6539 7.69323 4.64644 7.69323 4.64644C7.65424 4.62686 7.61869 4.60111 7.58796 4.57019C7.57221 4.55568 7.58796 4.52584 7.58796 4.52584C7.58796 4.52584 7.813 4.0741 7.72222 3.90377C7.57319 3.62407 7.02599 3.56191 6.94144 3.39733Z" fill="#FECE03"/>
<path d="M7.61529 5.07754C7.79986 5.37007 8.05421 5.61217 8.35548 5.78208C8.35548 5.78208 8.37205 5.78996 8.3849 5.77836C8.3849 5.77836 9.4856 4.52676 9.95974 4.0514C9.97052 4.04063 9.9639 4.02364 9.9639 4.02364C9.84036 3.71696 9.3754 3.35018 9.03098 3.14379C9.03098 3.14379 9.02043 3.1374 9.01277 3.14587C8.76657 3.41695 8.22784 4.10077 7.61529 5.0448C7.61529 5.0448 7.60418 5.05995 7.61529 5.07754Z" fill="#FECE03"/>
<path d="M8.55487 5.95104C8.68918 6.23448 8.83377 6.40401 9.11853 6.53455C9.11853 6.53455 9.13592 6.54199 9.14834 6.53039C9.14834 6.53039 10.1703 5.61329 10.6445 5.13832C10.6552 5.12755 10.6486 5.11056 10.6486 5.11056C10.5251 4.8047 10.3775 4.53864 10.0332 4.33225C10.0332 4.33225 10.0237 4.32562 10.0149 4.33432C9.3684 4.98001 8.55695 5.91746 8.55695 5.91746C8.55695 5.91746 8.54459 5.92932 8.55487 5.95104Z" fill="#FECE03"/>
</g>
<defs>
<clipPath id="clip0_1028_441">
<rect width="14" height="14" fill="white"/>
</clipPath>
</defs>
</svg>
