<svg width="14" height="14" viewBox="0 0 14 14" fill="none" xmlns="http://www.w3.org/2000/svg">
<g clip-path="url(#clip0_1025_304)">
<path fill-rule="evenodd" clip-rule="evenodd" d="M6.72748 10.4583L4.87873 7.22483C4.58171 7.82894 4.35484 8.70598 4.34717 10.0056L5.93879 12.7897C6.02538 12.9411 6.18561 13.0345 6.35878 13.0345H7.0964C7.26956 13.0345 7.42936 12.9416 7.51595 12.7901C8.35286 11.326 9.72725 8.92203 10.996 6.70308C11.0615 6.58841 10.9793 6.44519 10.8482 6.44519H9.22835C9.10056 6.44519 8.98241 6.51403 8.91862 6.62604L6.72748 10.4583Z" fill="#20323F"/>
<path fill-rule="evenodd" clip-rule="evenodd" d="M14 1.44824C10.3637 7.80847 3.78762 1.44824 3.78762 9.02708L0.0999857 2.57698C-0.0286856 2.35207 -0.0378921 2.06585 0.0999857 1.82456C0.237864 1.58327 0.488192 1.44824 0.745315 1.44824H14Z" fill="#E72076"/>
</g>
<defs>
<clipPath id="clip0_1025_304">
<rect width="14" height="14" fill="white"/>
</clipPath>
</defs>
</svg>
